<mxfile host="Electron" agent="Mozilla/5.0 (Windows NT 10.0; Win64; x64) AppleWebKit/537.36 (KHTML, like Gecko) draw.io/24.7.17 Chrome/128.0.6613.36 Electron/32.0.1 Safari/537.36" version="24.7.17">
  <diagram name="Страница — 1" id="fVEzhnZ4P1LS7fmdBczv">
    <mxGraphModel dx="744" dy="887" grid="1" gridSize="10" guides="1" tooltips="1" connect="1" arrows="1" fold="1" page="1" pageScale="1" pageWidth="827" pageHeight="1169" math="0" shadow="0">
      <root>
        <mxCell id="0" />
        <mxCell id="1" parent="0" />
        <mxCell id="oVHaOxsh3ENu2Xw5Ay2V-5" style="edgeStyle=orthogonalEdgeStyle;rounded=0;orthogonalLoop=1;jettySize=auto;html=1;exitX=0.5;exitY=1;exitDx=0;exitDy=0;entryX=0.5;entryY=0;entryDx=0;entryDy=0;" edge="1" parent="1" source="oVHaOxsh3ENu2Xw5Ay2V-1" target="oVHaOxsh3ENu2Xw5Ay2V-3">
          <mxGeometry relative="1" as="geometry" />
        </mxCell>
        <mxCell id="oVHaOxsh3ENu2Xw5Ay2V-7" style="edgeStyle=orthogonalEdgeStyle;rounded=0;orthogonalLoop=1;jettySize=auto;html=1;exitX=0.5;exitY=1;exitDx=0;exitDy=0;entryX=0.5;entryY=0;entryDx=0;entryDy=0;" edge="1" parent="1" source="oVHaOxsh3ENu2Xw5Ay2V-1" target="oVHaOxsh3ENu2Xw5Ay2V-2">
          <mxGeometry relative="1" as="geometry" />
        </mxCell>
        <mxCell id="oVHaOxsh3ENu2Xw5Ay2V-8" style="edgeStyle=orthogonalEdgeStyle;rounded=0;orthogonalLoop=1;jettySize=auto;html=1;exitX=0.5;exitY=1;exitDx=0;exitDy=0;entryX=0.5;entryY=0;entryDx=0;entryDy=0;" edge="1" parent="1" source="oVHaOxsh3ENu2Xw5Ay2V-1" target="oVHaOxsh3ENu2Xw5Ay2V-4">
          <mxGeometry relative="1" as="geometry" />
        </mxCell>
        <mxCell id="oVHaOxsh3ENu2Xw5Ay2V-14" style="edgeStyle=orthogonalEdgeStyle;rounded=0;orthogonalLoop=1;jettySize=auto;html=1;exitX=1;exitY=0.5;exitDx=0;exitDy=0;entryX=0;entryY=0.5;entryDx=0;entryDy=0;" edge="1" parent="1" source="oVHaOxsh3ENu2Xw5Ay2V-1" target="oVHaOxsh3ENu2Xw5Ay2V-13">
          <mxGeometry relative="1" as="geometry" />
        </mxCell>
        <mxCell id="oVHaOxsh3ENu2Xw5Ay2V-15" style="edgeStyle=orthogonalEdgeStyle;rounded=0;orthogonalLoop=1;jettySize=auto;html=1;exitX=1;exitY=0.75;exitDx=0;exitDy=0;entryX=0.5;entryY=0;entryDx=0;entryDy=0;" edge="1" parent="1" source="oVHaOxsh3ENu2Xw5Ay2V-1" target="oVHaOxsh3ENu2Xw5Ay2V-12">
          <mxGeometry relative="1" as="geometry">
            <Array as="points">
              <mxPoint x="200" y="110" />
              <mxPoint x="407" y="110" />
            </Array>
          </mxGeometry>
        </mxCell>
        <mxCell id="oVHaOxsh3ENu2Xw5Ay2V-1" value="Врач" style="rounded=0;whiteSpace=wrap;html=1;" vertex="1" parent="1">
          <mxGeometry x="80" y="40" width="120" height="60" as="geometry" />
        </mxCell>
        <mxCell id="oVHaOxsh3ENu2Xw5Ay2V-2" value="ФИО" style="ellipse;whiteSpace=wrap;html=1;" vertex="1" parent="1">
          <mxGeometry x="40" y="140" width="80" height="50" as="geometry" />
        </mxCell>
        <mxCell id="oVHaOxsh3ENu2Xw5Ay2V-3" value="Паспорт" style="ellipse;whiteSpace=wrap;html=1;" vertex="1" parent="1">
          <mxGeometry x="140" y="140" width="80" height="50" as="geometry" />
        </mxCell>
        <mxCell id="oVHaOxsh3ENu2Xw5Ay2V-4" value="Дата Начала&lt;div&gt;&amp;nbsp;работы&lt;/div&gt;" style="ellipse;whiteSpace=wrap;html=1;" vertex="1" parent="1">
          <mxGeometry x="230" y="140" width="110" height="50" as="geometry" />
        </mxCell>
        <mxCell id="oVHaOxsh3ENu2Xw5Ay2V-12" value="Специализация" style="ellipse;whiteSpace=wrap;html=1;" vertex="1" parent="1">
          <mxGeometry x="360" y="137.5" width="94" height="55" as="geometry" />
        </mxCell>
        <mxCell id="oVHaOxsh3ENu2Xw5Ay2V-13" value="Кабинет" style="ellipse;whiteSpace=wrap;html=1;" vertex="1" parent="1">
          <mxGeometry x="260" y="40" width="120" height="60" as="geometry" />
        </mxCell>
        <mxCell id="oVHaOxsh3ENu2Xw5Ay2V-27" style="edgeStyle=orthogonalEdgeStyle;rounded=0;orthogonalLoop=1;jettySize=auto;html=1;exitX=0.5;exitY=1;exitDx=0;exitDy=0;entryX=0.5;entryY=0;entryDx=0;entryDy=0;" edge="1" parent="1" source="oVHaOxsh3ENu2Xw5Ay2V-24" target="oVHaOxsh3ENu2Xw5Ay2V-25">
          <mxGeometry relative="1" as="geometry" />
        </mxCell>
        <mxCell id="oVHaOxsh3ENu2Xw5Ay2V-28" style="edgeStyle=orthogonalEdgeStyle;rounded=0;orthogonalLoop=1;jettySize=auto;html=1;exitX=0.5;exitY=1;exitDx=0;exitDy=0;entryX=0.5;entryY=0;entryDx=0;entryDy=0;" edge="1" parent="1" source="oVHaOxsh3ENu2Xw5Ay2V-24" target="oVHaOxsh3ENu2Xw5Ay2V-26">
          <mxGeometry relative="1" as="geometry" />
        </mxCell>
        <mxCell id="oVHaOxsh3ENu2Xw5Ay2V-24" value="Пациент" style="rounded=0;whiteSpace=wrap;html=1;" vertex="1" parent="1">
          <mxGeometry x="576" y="480" width="120" height="60" as="geometry" />
        </mxCell>
        <mxCell id="oVHaOxsh3ENu2Xw5Ay2V-25" value="ФИО" style="ellipse;whiteSpace=wrap;html=1;" vertex="1" parent="1">
          <mxGeometry x="516" y="580" width="70" height="40" as="geometry" />
        </mxCell>
        <mxCell id="oVHaOxsh3ENu2Xw5Ay2V-26" value="№ полиса" style="ellipse;whiteSpace=wrap;html=1;" vertex="1" parent="1">
          <mxGeometry x="626" y="575" width="90" height="50" as="geometry" />
        </mxCell>
        <mxCell id="oVHaOxsh3ENu2Xw5Ay2V-34" style="edgeStyle=orthogonalEdgeStyle;rounded=0;orthogonalLoop=1;jettySize=auto;html=1;exitX=0.5;exitY=1;exitDx=0;exitDy=0;entryX=0.5;entryY=0;entryDx=0;entryDy=0;" edge="1" parent="1" source="oVHaOxsh3ENu2Xw5Ay2V-29" target="oVHaOxsh3ENu2Xw5Ay2V-31">
          <mxGeometry relative="1" as="geometry" />
        </mxCell>
        <mxCell id="oVHaOxsh3ENu2Xw5Ay2V-35" style="edgeStyle=orthogonalEdgeStyle;rounded=0;orthogonalLoop=1;jettySize=auto;html=1;exitX=0.5;exitY=1;exitDx=0;exitDy=0;entryX=0.5;entryY=0;entryDx=0;entryDy=0;" edge="1" parent="1" source="oVHaOxsh3ENu2Xw5Ay2V-29" target="oVHaOxsh3ENu2Xw5Ay2V-30">
          <mxGeometry relative="1" as="geometry" />
        </mxCell>
        <mxCell id="oVHaOxsh3ENu2Xw5Ay2V-36" style="edgeStyle=orthogonalEdgeStyle;rounded=0;orthogonalLoop=1;jettySize=auto;html=1;exitX=0.5;exitY=1;exitDx=0;exitDy=0;entryX=0.5;entryY=0;entryDx=0;entryDy=0;" edge="1" parent="1" source="oVHaOxsh3ENu2Xw5Ay2V-29" target="oVHaOxsh3ENu2Xw5Ay2V-32">
          <mxGeometry relative="1" as="geometry" />
        </mxCell>
        <mxCell id="oVHaOxsh3ENu2Xw5Ay2V-29" value="Карточка пациента" style="rounded=0;whiteSpace=wrap;html=1;" vertex="1" parent="1">
          <mxGeometry x="466" y="250" width="120" height="60" as="geometry" />
        </mxCell>
        <mxCell id="oVHaOxsh3ENu2Xw5Ay2V-30" value="Пациент" style="ellipse;whiteSpace=wrap;html=1;" vertex="1" parent="1">
          <mxGeometry x="646" y="360" width="90" height="50" as="geometry" />
        </mxCell>
        <mxCell id="oVHaOxsh3ENu2Xw5Ay2V-31" value="Диагноз" style="ellipse;whiteSpace=wrap;html=1;" vertex="1" parent="1">
          <mxGeometry x="516" y="350" width="100" height="50" as="geometry" />
        </mxCell>
        <mxCell id="oVHaOxsh3ENu2Xw5Ay2V-32" value="Врач&amp;nbsp;" style="ellipse;whiteSpace=wrap;html=1;" vertex="1" parent="1">
          <mxGeometry x="340" y="350" width="100" height="50" as="geometry" />
        </mxCell>
        <mxCell id="oVHaOxsh3ENu2Xw5Ay2V-38" value="" style="shape=flexArrow;endArrow=classic;startArrow=classic;html=1;rounded=0;exitX=1;exitY=0;exitDx=0;exitDy=0;" edge="1" parent="1" source="oVHaOxsh3ENu2Xw5Ay2V-24" target="oVHaOxsh3ENu2Xw5Ay2V-30">
          <mxGeometry width="100" height="100" relative="1" as="geometry">
            <mxPoint x="280" y="410" as="sourcePoint" />
            <mxPoint x="380" y="310" as="targetPoint" />
          </mxGeometry>
        </mxCell>
        <mxCell id="oVHaOxsh3ENu2Xw5Ay2V-40" value="" style="shape=flexArrow;endArrow=classic;startArrow=classic;html=1;rounded=0;entryX=0.029;entryY=0.294;entryDx=0;entryDy=0;entryPerimeter=0;" edge="1" parent="1" target="oVHaOxsh3ENu2Xw5Ay2V-32">
          <mxGeometry width="100" height="100" relative="1" as="geometry">
            <mxPoint x="180" y="200" as="sourcePoint" />
            <mxPoint x="330" y="360" as="targetPoint" />
          </mxGeometry>
        </mxCell>
        <mxCell id="oVHaOxsh3ENu2Xw5Ay2V-44" style="edgeStyle=orthogonalEdgeStyle;rounded=0;orthogonalLoop=1;jettySize=auto;html=1;exitX=0.5;exitY=1;exitDx=0;exitDy=0;entryX=0.5;entryY=0;entryDx=0;entryDy=0;" edge="1" parent="1" source="oVHaOxsh3ENu2Xw5Ay2V-41" target="oVHaOxsh3ENu2Xw5Ay2V-42">
          <mxGeometry relative="1" as="geometry" />
        </mxCell>
        <mxCell id="oVHaOxsh3ENu2Xw5Ay2V-45" style="edgeStyle=orthogonalEdgeStyle;rounded=0;orthogonalLoop=1;jettySize=auto;html=1;exitX=0.5;exitY=1;exitDx=0;exitDy=0;entryX=0.5;entryY=0;entryDx=0;entryDy=0;" edge="1" parent="1" source="oVHaOxsh3ENu2Xw5Ay2V-41" target="oVHaOxsh3ENu2Xw5Ay2V-43">
          <mxGeometry relative="1" as="geometry" />
        </mxCell>
        <mxCell id="oVHaOxsh3ENu2Xw5Ay2V-41" value="Учет посещений" style="rounded=0;whiteSpace=wrap;html=1;" vertex="1" parent="1">
          <mxGeometry x="526" y="30" width="120" height="60" as="geometry" />
        </mxCell>
        <mxCell id="oVHaOxsh3ENu2Xw5Ay2V-42" value="Карточка пациента" style="ellipse;whiteSpace=wrap;html=1;" vertex="1" parent="1">
          <mxGeometry x="486" y="130" width="100" height="42.5" as="geometry" />
        </mxCell>
        <mxCell id="oVHaOxsh3ENu2Xw5Ay2V-43" value="Время посещения" style="ellipse;whiteSpace=wrap;html=1;" vertex="1" parent="1">
          <mxGeometry x="600" y="130" width="96" height="42.5" as="geometry" />
        </mxCell>
        <mxCell id="oVHaOxsh3ENu2Xw5Ay2V-46" value="" style="shape=flexArrow;endArrow=classic;startArrow=classic;html=1;rounded=0;entryX=0.5;entryY=1;entryDx=0;entryDy=0;exitX=0.5;exitY=0;exitDx=0;exitDy=0;" edge="1" parent="1" source="oVHaOxsh3ENu2Xw5Ay2V-29" target="oVHaOxsh3ENu2Xw5Ay2V-42">
          <mxGeometry width="100" height="100" relative="1" as="geometry">
            <mxPoint x="380" y="410" as="sourcePoint" />
            <mxPoint x="480" y="310" as="targetPoint" />
          </mxGeometry>
        </mxCell>
      </root>
    </mxGraphModel>
  </diagram>
</mxfile>
